Bitcount_Prop_Double.ufo
<glyph name="px.ix-1.iy9" format="2">
  <advance width="100"/>
  <outline>
    <contour>
      <point x="-50" y="900" type="curve" smooth="yes"/>
      <point x="-22" y="900"/>
      <point x="0" y="922"/>
      <point x="0" y="950" type="curve" smooth="yes"/>
      <point x="0" y="978"/>
      <point x="-22" y="1000"/>
      <point x="-50" y="1000" type="curve" smooth="yes"/>
      <point x="-78" y="1000"/>
      <point x="-100" y="978"/>
      <point x="-100" y="950" type="curve" smooth="yes"/>
      <point x="-100" y="922"/>
      <point x="-78" y="900"/>
    </contour>
  </outline>
</glyph>
<glyph name="px.ix0.iy7" format="2">
  <advance width="100"/>
  <outline>
    <contour>
      <point x="50" y="700" type="curve" smooth="yes"/>
      <point x="78" y="700"/>
      <point x="100" y="722"/>
      <point x="100" y="750" type="curve" smooth="yes"/>
      <point x="100" y="778"/>
      <point x="78" y="800"/>
      <point x="50" y="800" type="curve" smooth="yes"/>
      <point x="22" y="800"/>
      <point x="0" y="778"/>
      <point x="0" y="750" type="curve" smooth="yes"/>
      <point x="0" y="722"/>
      <point x="22" y="700"/>
    </contour>
  </outline>
</glyph>
<glyph name="px.ix0.iy8" format="2">
  <advance width="100"/>
  <outline>
    <contour>
      <point x="50" y="800" type="curve" smooth="yes"/>
      <point x="78" y="800"/>
      <point x="100" y="822"/>
      <point x="100" y="850" type="curve" smooth="yes"/>
      <point x="100" y="878"/>
      <point x="78" y="900"/>
      <point x="50" y="900" type="curve" smooth="yes"/>
      <point x="22" y="900"/>
      <point x="0" y="878"/>
      <point x="0" y="850" type="curve" smooth="yes"/>
      <point x="0" y="822"/>
      <point x="22" y="800"/>
    </contour>
  </outline>
</glyph>
<glyph name="px.ix1.iy5" format="2">
  <advance width="100"/>
  <outline>
    <contour>
      <point x="150" y="500" type="curve" smooth="yes"/>
      <point x="178" y="500"/>
      <point x="200" y="522"/>
      <point x="200" y="550" type="curve" smooth="yes"/>
      <point x="200" y="578"/>
      <point x="178" y="600"/>
      <point x="150" y="600" type="curve" smooth="yes"/>
      <point x="122" y="600"/>
      <point x="100" y="578"/>
      <point x="100" y="550" type="curve" smooth="yes"/>
      <point x="100" y="522"/>
      <point x="122" y="500"/>
    </contour>
  </outline>
</glyph>
<glyph name="px.ix1.iy6" format="2">
  <advance width="100"/>
  <outline>
    <contour>
      <point x="150" y="600" type="curve" smooth="yes"/>
      <point x="178" y="600"/>
      <point x="200" y="622"/>
      <point x="200" y="650" type="curve" smooth="yes"/>
      <point x="200" y="678"/>
      <point x="178" y="700"/>
      <point x="150" y="700" type="curve" smooth="yes"/>
      <point x="122" y="700"/>
      <point x="100" y="678"/>
      <point x="100" y="650" type="curve" smooth="yes"/>
      <point x="100" y="622"/>
      <point x="122" y="600"/>
    </contour>
  </outline>
</glyph>
<glyph name="px.ix1.iy8" format="2">
  <advance width="100"/>
  <outline>
    <contour>
      <point x="150" y="800" type="curve" smooth="yes"/>
      <point x="178" y="800"/>
      <point x="200" y="822"/>
      <point x="200" y="850" type="curve" smooth="yes"/>
      <point x="200" y="878"/>
      <point x="178" y="900"/>
      <point x="150" y="900" type="curve" smooth="yes"/>
      <point x="122" y="900"/>
      <point x="100" y="878"/>
      <point x="100" y="850" type="curve" smooth="yes"/>
      <point x="100" y="822"/>
      <point x="122" y="800"/>
    </contour>
  </outline>
</glyph>
<glyph name="px.ix2.iy-2" format="2">
  <advance width="100"/>
  <outline>
    <contour>
      <point x="250" y="-200" type="curve" smooth="yes"/>
      <point x="278" y="-200"/>
      <point x="300" y="-178"/>
      <point x="300" y="-150" type="curve" smooth="yes"/>
      <point x="300" y="-122"/>
      <point x="278" y="-100"/>
      <point x="250" y="-100" type="curve" smooth="yes"/>
      <point x="222" y="-100"/>
      <point x="200" y="-122"/>
      <point x="200" y="-150" type="curve" smooth="yes"/>
      <point x="200" y="-178"/>
      <point x="222" y="-200"/>
    </contour>
  </outline>
</glyph>
<glyph name="px.ix2.iy5" format="2">
  <advance width="100"/>
  <outline>
    <contour>
      <point x="250" y="500" type="curve" smooth="yes"/>
      <point x="278" y="500"/>
      <point x="300" y="522"/>
      <point x="300" y="550" type="curve" smooth="yes"/>
      <point x="300" y="578"/>
      <point x="278" y="600"/>
      <point x="250" y="600" type="curve" smooth="yes"/>
      <point x="222" y="600"/>
      <point x="200" y="578"/>
      <point x="200" y="550" type="curve" smooth="yes"/>
      <point x="200" y="522"/>
      <point x="222" y="500"/>
    </contour>
  </outline>
</glyph>
<glyph name="px.ix3.iy-2" format="2">
  <advance width="100"/>
  <outline>
    <contour>
      <point x="350" y="-200" type="curve" smooth="yes"/>
      <point x="378" y="-200"/>
      <point x="400" y="-178"/>
      <point x="400" y="-150" type="curve" smooth="yes"/>
      <point x="400" y="-122"/>
      <point x="378" y="-100"/>
      <point x="350" y="-100" type="curve" smooth="yes"/>
      <point x="322" y="-100"/>
      <point x="300" y="-122"/>
      <point x="300" y="-150" type="curve" smooth="yes"/>
      <point x="300" y="-178"/>
      <point x="322" y="-200"/>
    </contour>
  </outline>
</glyph>
<glyph name="px.ix3.iy-3" format="2">
  <advance width="100"/>
  <outline>
    <contour>
      <point x="350" y="-300" type="curve" smooth="yes"/>
      <point x="378" y="-300"/>
      <point x="400" y="-278"/>
      <point x="400" y="-250" type="curve" smooth="yes"/>
      <point x="400" y="-222"/>
      <point x="378" y="-200"/>
      <point x="350" y="-200" type="curve" smooth="yes"/>
      <point x="322" y="-200"/>
      <point x="300" y="-222"/>
      <point x="300" y="-250" type="curve" smooth="yes"/>
      <point x="300" y="-278"/>
      <point x="322" y="-300"/>
    </contour>
  </outline>
</glyph>
<glyph name="px.ix3.iy5" format="2">
  <advance width="100"/>
  <outline>
    <contour>
      <point x="350" y="500" type="curve" smooth="yes"/>
      <point x="378" y="500"/>
      <point x="400" y="522"/>
      <point x="400" y="550" type="curve" smooth="yes"/>
      <point x="400" y="578"/>
      <point x="378" y="600"/>
      <point x="350" y="600" type="curve" smooth="yes"/>
      <point x="322" y="600"/>
      <point x="300" y="578"/>
      <point x="300" y="550" type="curve" smooth="yes"/>
      <point x="300" y="522"/>
      <point x="322" y="500"/>
    </contour>
  </outline>
</glyph>
<glyph name="px.ix5.iy8" format="2">
  <advance width="100"/>
  <outline>
    <contour>
      <point x="550" y="800" type="curve" smooth="yes"/>
      <point x="578" y="800"/>
      <point x="600" y="822"/>
      <point x="600" y="850" type="curve" smooth="yes"/>
      <point x="600" y="878"/>
      <point x="578" y="900"/>
      <point x="550" y="900" type="curve" smooth="yes"/>
      <point x="522" y="900"/>
      <point x="500" y="878"/>
      <point x="500" y="850" type="curve" smooth="yes"/>
      <point x="500" y="822"/>
      <point x="522" y="800"/>
    </contour>
  </outline>
</glyph>
<glyph name="px.ix6.iy-3" format="2">
  <advance width="100"/>
  <outline>
    <contour>
      <point x="650" y="-300" type="curve" smooth="yes"/>
      <point x="678" y="-300"/>
      <point x="700" y="-278"/>
      <point x="700" y="-250" type="curve" smooth="yes"/>
      <point x="700" y="-222"/>
      <point x="678" y="-200"/>
      <point x="650" y="-200" type="curve" smooth="yes"/>
      <point x="622" y="-200"/>
      <point x="600" y="-222"/>
      <point x="600" y="-250" type="curve" smooth="yes"/>
      <point x="600" y="-278"/>
      <point x="622" y="-300"/>
    </contour>
  </outline>
</glyph>
<glyph name="px.ix6.iy3" format="2">
  <advance width="100"/>
  <outline>
    <contour>
      <point x="650" y="300" type="curve" smooth="yes"/>
      <point x="678" y="300"/>
      <point x="700" y="322"/>
      <point x="700" y="350" type="curve" smooth="yes"/>
      <point x="700" y="378"/>
      <point x="678" y="400"/>
      <point x="650" y="400" type="curve" smooth="yes"/>
      <point x="622" y="400"/>
      <point x="600" y="378"/>
      <point x="600" y="350" type="curve" smooth="yes"/>
      <point x="600" y="322"/>
      <point x="622" y="300"/>
    </contour>
  </outline>
</glyph>
<glyph name="px.ix6.iy4" format="2">
  <advance width="100"/>
  <outline>
    <contour>
      <point x="650" y="400" type="curve" smooth="yes"/>
      <point x="678" y="400"/>
      <point x="700" y="422"/>
      <point x="700" y="450" type="curve" smooth="yes"/>
      <point x="700" y="478"/>
      <point x="678" y="500"/>
      <point x="650" y="500" type="curve" smooth="yes"/>
      <point x="622" y="500"/>
      <point x="600" y="478"/>
      <point x="600" y="450" type="curve" smooth="yes"/>
      <point x="600" y="422"/>
      <point x="622" y="400"/>
    </contour>
  </outline>
</glyph>
<glyph name="px.ix7.iy-1" format="2">
  <advance width="100"/>
  <outline>
    <contour>
      <point x="750" y="-100" type="curve" smooth="yes"/>
      <point x="778" y="-100"/>
      <point x="800" y="-78"/>
      <point x="800" y="-50" type="curve" smooth="yes"/>
      <point x="800" y="-22"/>
      <point x="778" y="0"/>
      <point x="750" y="0" type="curve" smooth="yes"/>
      <point x="722" y="0"/>
      <point x="700" y="-22"/>
      <point x="700" y="-50" type="curve" smooth="yes"/>
      <point x="700" y="-78"/>
      <point x="722" y="-100"/>
    </contour>
  </outline>
</glyph>
<glyph name="px.ix7.iy4" format="2">
  <advance width="100"/>
  <outline>
    <contour>
      <point x="750" y="400" type="curve" smooth="yes"/>
      <point x="778" y="400"/>
      <point x="800" y="422"/>
      <point x="800" y="450" type="curve" smooth="yes"/>
      <point x="800" y="478"/>
      <point x="778" y="500"/>
      <point x="750" y="500" type="curve" smooth="yes"/>
      <point x="722" y="500"/>
      <point x="700" y="478"/>
      <point x="700" y="450" type="curve" smooth="yes"/>
      <point x="700" y="422"/>
      <point x="722" y="400"/>
    </contour>
  </outline>
</glyph>
<glyph name="px.ix7.iy5" format="2">
  <advance width="100"/>
  <outline>
    <contour>
      <point x="750" y="500" type="curve" smooth="yes"/>
      <point x="778" y="500"/>
      <point x="800" y="522"/>
      <point x="800" y="550" type="curve" smooth="yes"/>
      <point x="800" y="578"/>
      <point x="778" y="600"/>
      <point x="750" y="600" type="curve" smooth="yes"/>
      <point x="722" y="600"/>
      <point x="700" y="578"/>
      <point x="700" y="550" type="curve" smooth="yes"/>
      <point x="700" y="522"/>
      <point x="722" y="500"/>
    </contour>
  </outline>
</glyph>
<glyph name="px.ix7.iy7" format="2">
  <advance width="100"/>
  <outline>
    <contour>
      <point x="750" y="700" type="curve" smooth="yes"/>
      <point x="778" y="700"/>
      <point x="800" y="722"/>
      <point x="800" y="750" type="curve" smooth="yes"/>
      <point x="800" y="778"/>
      <point x="778" y="800"/>
      <point x="750" y="800" type="curve" smooth="yes"/>
      <point x="722" y="800"/>
      <point x="700" y="778"/>
      <point x="700" y="750" type="curve" smooth="yes"/>
      <point x="700" y="722"/>
      <point x="722" y="700"/>
    </contour>
  </outline>
</glyph>
<glyph name="px.ix8.iy-2" format="2">
  <advance width="100"/>
  <outline>
    <contour>
      <point x="850" y="-200" type="curve" smooth="yes"/>
      <point x="878" y="-200"/>
      <point x="900" y="-178"/>
      <point x="900" y="-150" type="curve" smooth="yes"/>
      <point x="900" y="-122"/>
      <point x="878" y="-100"/>
      <point x="850" y="-100" type="curve" smooth="yes"/>
      <point x="822" y="-100"/>
      <point x="800" y="-122"/>
      <point x="800" y="-150" type="curve" smooth="yes"/>
      <point x="800" y="-178"/>
      <point x="822" y="-200"/>
    </contour>
  </outline>
</glyph>
<glyph name="px.ix8.iy-3" format="2">
  <advance width="100"/>
  <outline>
    <contour>
      <point x="850" y="-300" type="curve" smooth="yes"/>
      <point x="878" y="-300"/>
      <point x="900" y="-278"/>
      <point x="900" y="-250" type="curve" smooth="yes"/>
      <point x="900" y="-222"/>
      <point x="878" y="-200"/>
      <point x="850" y="-200" type="curve" smooth="yes"/>
      <point x="822" y="-200"/>
      <point x="800" y="-222"/>
      <point x="800" y="-250" type="curve" smooth="yes"/>
      <point x="800" y="-278"/>
      <point x="822" y="-300"/>
    </contour>
  </outline>
</glyph>
<glyph name="px.ix8.iy7" format="2">
  <advance width="100"/>
  <outline>
    <contour>
      <point x="850" y="700" type="curve" smooth="yes"/>
      <point x="878" y="700"/>
      <point x="900" y="722"/>
      <point x="900" y="750" type="curve" smooth="yes"/>
      <point x="900" y="778"/>
      <point x="878" y="800"/>
      <point x="850" y="800" type="curve" smooth="yes"/>
      <point x="822" y="800"/>
      <point x="800" y="778"/>
      <point x="800" y="750" type="curve" smooth="yes"/>
      <point x="800" y="722"/>
      <point x="822" y="700"/>
    </contour>
  </outline>
</glyph>
<glyph name="px.ix9.iy3" format="2">
  <advance width="100"/>
  <outline>
    <contour>
      <point x="950" y="300" type="curve" smooth="yes"/>
      <point x="978" y="300"/>
      <point x="1000" y="322"/>
      <point x="1000" y="350" type="curve" smooth="yes"/>
      <point x="1000" y="378"/>
      <point x="978" y="400"/>
      <point x="950" y="400" type="curve" smooth="yes"/>
      <point x="922" y="400"/>
      <point x="900" y="378"/>
      <point x="900" y="350" type="curve" smooth="yes"/>
      <point x="900" y="322"/>
      <point x="922" y="300"/>
    </contour>
  </outline>
</glyph>
<glyph name="px.ix9.iy6" format="2">
  <advance width="100"/>
  <outline>
    <contour>
      <point x="950" y="600" type="curve" smooth="yes"/>
      <point x="978" y="600"/>
      <point x="1000" y="622"/>
      <point x="1000" y="650" type="curve" smooth="yes"/>
      <point x="1000" y="678"/>
      <point x="978" y="700"/>
      <point x="950" y="700" type="curve" smooth="yes"/>
      <point x="922" y="700"/>
      <point x="900" y="678"/>
      <point x="900" y="650" type="curve" smooth="yes"/>
      <point x="900" y="622"/>
      <point x="922" y="600"/>
    </contour>
  </outline>
</glyph>
<glyph name="px.ix9.iy9" format="2">
  <advance width="100"/>
  <outline>
    <contour>
      <point x="950" y="900" type="curve" smooth="yes"/>
      <point x="978" y="900"/>
      <point x="1000" y="922"/>
      <point x="1000" y="950" type="curve" smooth="yes"/>
      <point x="1000" y="978"/>
      <point x="978" y="1000"/>
      <point x="950" y="1000" type="curve" smooth="yes"/>
      <point x="922" y="1000"/>
      <point x="900" y="978"/>
      <point x="900" y="950" type="curve" smooth="yes"/>
      <point x="900" y="922"/>
      <point x="922" y="900"/>
    </contour>
  </outline>
</glyph>
